<?xml version="1.0" encoding="UTF-8"?>
<svg width="20px" height="20px" viewBox="0 0 20 20" version="1.1" xmlns="http://www.w3.org/2000/svg" xmlns:xlink="http://www.w3.org/1999/xlink">
    <!-- Generator: Sketch 40.2 (33826) - http://www.bohemiancoding.com/sketch -->
    <title>1475984484_3</title>
    <desc>Created with Sketch.</desc>
    <defs></defs>
    <g id="Page-1" stroke="none" stroke-width="1" fill="none" fill-rule="evenodd">
        <g id="homepage_desktop" transform="translate(-463.000000, -2581.000000)">
            <g id="footer" transform="translate(0.000000, 2376.000000)">
                <g id="Group-2" transform="translate(463.000000, 204.000000)">
                    <g id="1475984484_3" transform="translate(0.000000, 1.000000)">
                        <g id="Layer_1">
                            <path d="M17.9807692,0 L1.63461538,0 C0.735576923,0 0,0.75 0,1.66666667 L0,18.3333333 C0,19.25 0.735576923,20 1.63461538,20 L17.9807692,20 C18.8798077,20 19.6153846,19.25 19.6153846,18.3333333 L19.6153846,1.66666667 C19.6153846,0.75 18.8798077,0 17.9807692,0 L17.9807692,0 Z" id="Shape" fill="#FFFFFF"></path>
                            <path d="M13.0769231,8.33333333 L11.0336538,8.33333333 L11.0336538,6.66666667 C11.0336538,6.04166667 11.3605769,5.83333333 12.2596154,5.83333333 L13.0769231,5.83333333 L13.0769231,3.75 L11.4423077,3.75 C9.76682692,3.75 8.58173077,4.75 8.58173077,6.66666667 L8.58173077,8.33333333 L6.53846154,8.33333333 L6.53846154,10.4166667 L8.58173077,10.4166667 L8.58173077,16.25 L11.0336538,16.25 L11.0336538,10.4166667 L12.6682692,10.4166667 L13.0769231,8.33333333 Z" id="f_1_" fill="#D0021B"></path>
                        </g>
                    </g>
                </g>
            </g>
        </g>
    </g>
</svg>