<?xml version="1.0" encoding="UTF-8"?>
<svg width="310px" height="60px" viewBox="0 0 310 60" version="1.1" xmlns="http://www.w3.org/2000/svg" xmlns:xlink="http://www.w3.org/1999/xlink">
    <!-- Generator: Sketch 40.2 (33826) - http://www.bohemiancoding.com/sketch -->
    <title>Group 5</title>
    <desc>Created with Sketch.</desc>
    <defs></defs>
    <g id="Page-1" stroke="none" stroke-width="1" fill="none" fill-rule="evenodd">
        <g id="Group-5">
            <g id="Group-6">
                <g id="logo">
                    <g id="Layer_1">
                        <g id="Group" transform="translate(5.263158, 15.728155)" fill="#B77835">
                            <path d="M23.2631579,17.7087379 L24.1578947,16.4271845 L15.8947368,8.7961165 L16.7368421,6.52427184 L18.5789474,4.01941748 L18.2105263,0.640776699 L16.4210526,0.582524272 L13.7368421,3.37864078 L11.4736842,4.01941748 L8.42105263,6.6407767 L1.52631579,5.24271845 L0,16.0776699 L1.47368421,18.9902913 L6.31578947,19.9805825 L6.84210526,18.407767 L13.4736842,22.1359223 L18.8421053,23.592233 L19.3157895,22.368932 L20.2105263,22.5436893 L21.4210526,21.6699029 L21.4210526,20.8543689 L22.7368421,21.2038835 L23.8947368,20.2135922 L24.2631579,18.5242718 L23.2631579,17.7087379 L23.2631579,17.7087379 Z M3.21052632,15.4368932 C3.15789474,15.7864078 2.89473684,16.0776699 2.57894737,16.0776699 L2.47368421,16.0776699 C2.31578947,16.0194175 2.15789474,15.961165 2.10526316,15.7864078 C2,15.6116505 1.94736842,15.4368932 2,15.2038835 C2.05263158,14.8543689 2.31578947,14.5631068 2.63157895,14.5631068 L2.73684211,14.5631068 C2.89473684,14.6213592 3.05263158,14.6796117 3.10526316,14.8543689 C3.15789474,15.0291262 3.21052632,15.2038835 3.21052632,15.4368932 L3.21052632,15.4368932 Z M23.1578947,19.631068 L22.5789474,20.0970874 L20.6842105,19.5728155 L16.5789474,17.0097087 L16.4736842,17.2427184 L20.5263158,19.7475728 L20.5263158,21.0873786 L20.0526316,21.4368932 L19.1052632,21.2621359 L19.1052632,21.2621359 L15.6315789,19.3398058 L15.5263158,19.5728155 L18.7368421,21.3786408 L18.3684211,22.368932 L13.7894737,21.0873786 L7.31578947,17.4174757 L7.31578947,17.3009709 L7.36842105,17.1262136 L8.63157895,7.9223301 L11.8421053,5.18446602 L14.1578947,4.54368932 L16.7368421,1.86407767 L17.4210526,1.86407767 L17.6315789,3.72815534 L16,5.94174757 L14.8947368,8.91262136 L13.4210526,7.63106796 L13.2631579,7.86407767 L14.8947368,9.26213592 L22.8421053,16.6019417 L22.0526316,17.7087379 L17.2631579,14.3883495 L17.1578947,14.6213592 L22.2631579,18.1747573 L22.2631579,18.1747573 L23.2631579,19.1067961 L23.1578947,19.631068 L23.1578947,19.631068 Z" id="Shape"></path>
                            <g transform="translate(25.263158, 0.000000)" id="Shape">
                                <path d="M23.0526316,5.47572816 L16.1578947,6.75728155 L13.1052632,4.0776699 L10.8421053,3.37864078 L8.21052632,0.524271845 L6.42105263,0.582524272 L6,3.96116505 L7.78947368,6.46601942 L8.57894737,8.73786408 L0.263157895,16.2524272 L1.15789474,17.5339806 L0.105263158,18.5242718 L0.473684211,20.2135922 L1.63157895,21.2038835 L2.94736842,20.8543689 L2.94736842,21.6699029 L4.15789474,22.5436893 L5.05263158,22.368932 L5.52631579,23.592233 L10.9473684,22.1941748 L17.5789474,18.5825243 L18.1052632,20.1553398 L22.9473684,19.2815534 L24.4210526,16.4271845 L23.0526316,5.47572816 L23.0526316,5.47572816 Z M17.1578947,17.4757282 L10.6315789,21.0291262 L6.05263158,22.1941748 L5.68421053,21.2038835 L8.78947368,19.5145631 L9.36842105,20.4466019 L9.52631579,20.2718447 L8.84210526,19.1650485 L5.26315789,21.0873786 L5.26315789,21.0873786 L4.31578947,21.2621359 L3.84210526,20.9126214 L3.84210526,19.5728155 L7.68421053,17.2427184 C7.84210526,17.592233 8.10526316,18.0582524 8.10526316,18.0582524 L8.31578947,17.8834951 C8.31578947,17.8834951 8,17.3592233 7.89473684,17.0679612 L7.89473684,17.0679612 C7.89473684,17.0679612 7.89473684,17.0097087 7.84210526,17.0097087 C7.84210526,17.0097087 7.84210526,16.9514563 7.78947368,16.9514563 L7.78947368,16.9514563 C7.68421053,16.6601942 7.52631579,16.0194175 7.52631579,16.0194175 L7.31578947,16.1359223 C7.31578947,16.1359223 7.47368421,16.7184466 7.57894737,17.0679612 L3.68421053,19.4563107 L1.73684211,19.9805825 L1.21052632,19.5145631 L1.10526316,18.9902913 L2.15789474,18.0582524 L2.15789474,18.0582524 L7.10526316,14.6796117 L6.68421053,13.1067961 L6.47368421,13.223301 L6.84210526,14.5631068 L2.36842105,17.592233 L1.57894737,16.4854369 L9.47368421,9.32038835 C9.73684211,9.90291262 10.4736842,11.3592233 11.2631579,12.3495146 C12.3157895,13.6893204 13.6842105,14.6213592 13.6842105,14.6213592 L13.7894737,14.3883495 C13.7894737,14.3883495 12.4736842,13.4563107 11.4210526,12.1747573 C10.6315789,11.1262136 9.63157895,9.14563107 9.63157895,9.14563107 L8.47368421,5.88349515 L6.84210526,3.61165049 L7.05263158,1.74757282 L7.73684211,1.74757282 L10.2631579,4.48543689 L12.5789474,5.18446602 L15.7894737,7.98058252 L16.9473684,17.1262136 L16.9473684,17.184466 L17,17.3592233 L17.1578947,17.4757282 L17.1578947,17.4757282 Z M22.3157895,15.961165 C22.2105263,16.1359223 22.1052632,16.1941748 21.9473684,16.2524272 L21.8421053,16.2524272 C21.5263158,16.2524272 21.2631579,15.961165 21.2105263,15.6116505 C21.1578947,15.3786408 21.2105263,15.2038835 21.3157895,15.0291262 C21.4210526,14.8543689 21.5263158,14.7961165 21.6842105,14.7378641 L21.7894737,14.7378641 C22.1052632,14.7378641 22.3684211,15.0291262 22.4210526,15.3786408 C22.4736842,15.5533981 22.4210526,15.7864078 22.3157895,15.961165 L22.3157895,15.961165 Z"></path>
                                <path d="M7.94736842,17.1262136 C7.94736842,17.1262136 7.94736842,17.0679612 7.89473684,17.0679612 C7.89473684,17.0679612 7.89473684,17.0097087 7.84210526,17.0097087 L7.94736842,17.1262136 L7.94736842,17.1262136 Z"></path>
                            </g>
                        </g>
                        <path d="M55.0526316,19.8058252 C55.7894737,18.815534 56.3684211,17.8252427 56.7894737,16.7184466 C57.2105263,15.6699029 57.5263158,14.5631068 57.6842105,13.4563107 C57.8421053,12.3495146 57.8947368,11.3009709 57.7368421,10.3106796 C57.6315789,9.32038835 57.3684211,8.33009709 57,7.45631068 C56.8421053,7.10679612 56.6315789,6.81553398 56.3684211,6.6407767 C56.1052632,6.46601942 55.8947368,6.40776699 55.7894737,6.52427184 C55.7368421,6.58252427 55.6315789,6.69902913 55.5263158,6.93203883 C55.4210526,7.16504854 55.2631579,7.39805825 55.1578947,7.63106796 C55,7.86407767 54.8421053,8.15533981 54.6315789,8.38834951 C54.4210526,8.62135922 54.2105263,8.85436893 53.9473684,9.02912621 C53.1052632,9.61165049 52.2631579,9.78640777 51.4736842,9.49514563 C50.6842105,9.2038835 50.0526316,8.50485437 49.5263158,7.39805825 C49.2631579,6.81553398 49.1578947,6.29126214 49.1052632,5.70873786 C49.1052632,5.12621359 49.1578947,4.54368932 49.2631579,4.01941748 C49.4210526,3.4368932 49.6315789,2.91262136 49.9473684,2.44660194 C50.2631579,1.98058252 50.6842105,1.57281553 51.1578947,1.22330097 C51.7368421,0.873786408 52.3157895,0.640776699 53,0.582524272 C53.6842105,0.524271845 54.3684211,0.699029126 55.0526316,0.990291262 C55.7368421,1.33980583 56.3684211,1.80582524 57,2.44660194 C57.6315789,3.08737864 58.1578947,3.96116505 58.6315789,4.95145631 C59.1052632,6.05825243 59.4736842,7.2815534 59.6315789,8.50485437 C59.7894737,9.78640777 59.7894737,11.1262136 59.5263158,12.4660194 C59.3157895,13.8640777 58.8947368,15.2621359 58.2105263,16.7184466 C57.5263158,18.1747573 56.6842105,19.631068 55.5789474,21.1456311 L55.0526316,19.8058252 L55.0526316,19.8058252 Z" id="Shape" fill="#29910D"></path>
                        <path d="M4.15789474,21.3786408 C3.05263158,19.8640777 2.15789474,18.407767 1.52631579,16.9514563 C0.894736842,15.4951456 0.473684211,14.0970874 0.210526316,12.6990291 C1.27745037e-14,11.3009709 -0.0526315789,10.0194175 0.105263158,8.73786408 C0.263157895,7.45631068 0.578947368,6.29126214 1.10526316,5.18446602 C1.57894737,4.13592233 2.10526316,3.32038835 2.73684211,2.67961165 C3.36842105,2.03883495 4,1.51456311 4.68421053,1.22330097 C5.36842105,0.873786408 6.05263158,0.757281553 6.73684211,0.815533981 C7.42105263,0.873786408 8.05263158,1.04854369 8.57894737,1.45631068 C9.05263158,1.80582524 9.47368421,2.21359223 9.78947368,2.67961165 C10.1052632,3.14563107 10.3684211,3.66990291 10.4736842,4.25242718 C10.6315789,4.83495146 10.6842105,5.3592233 10.6315789,5.94174757 C10.6315789,6.52427184 10.4736842,7.10679612 10.2105263,7.63106796 C9.73684211,8.73786408 9.05263158,9.4368932 8.26315789,9.72815534 C7.47368421,10.0194175 6.63157895,9.84466019 5.78947368,9.26213592 C5.52631579,9.08737864 5.31578947,8.85436893 5.10526316,8.62135922 C4.89473684,8.38834951 4.73684211,8.09708738 4.57894737,7.86407767 C4.42105263,7.63106796 4.31578947,7.39805825 4.21052632,7.16504854 C4.10526316,6.93203883 4,6.81553398 3.94736842,6.75728155 C3.84210526,6.69902913 3.63157895,6.69902913 3.36842105,6.87378641 C3.10526316,7.04854369 2.89473684,7.33980583 2.73684211,7.68932039 C2.36842105,8.5631068 2.10526316,9.49514563 2,10.5436893 C1.89473684,11.5339806 1.89473684,12.6407767 2.05263158,13.6893204 C2.21052632,14.7961165 2.52631579,15.8446602 2.94736842,16.9514563 C3.36842105,18 3.94736842,19.0485437 4.68421053,20.038835 L4.15789474,21.3786408 L4.15789474,21.3786408 Z" id="Shape" fill="#F9BE02"></path>
                        <path d="M55.5789474,38.9126214 C56.6842105,40.4271845 57.5789474,41.8834951 58.2105263,43.3398058 C58.8421053,44.7961165 59.2631579,46.1941748 59.5263158,47.592233 C59.7368421,48.9902913 59.7894737,50.2718447 59.6315789,51.5533981 C59.4736842,52.8349515 59.1578947,54 58.6315789,55.1067961 C58.1578947,56.1553398 57.6315789,56.9708738 57,57.6116505 C56.3684211,58.2524272 55.7368421,58.776699 55.0526316,59.0679612 C54.3684211,59.4174757 53.6842105,59.5339806 53,59.4757282 C52.3157895,59.4174757 51.6842105,59.2427184 51.1578947,58.8349515 C50.6842105,58.4854369 50.2631579,58.0776699 49.9473684,57.6116505 C49.6315789,57.1456311 49.3684211,56.6213592 49.2631579,56.038835 C49.1052632,55.4563107 49.0526316,54.9320388 49.1052632,54.3495146 C49.1052632,53.7669903 49.2631579,53.184466 49.5263158,52.6601942 C50,51.5533981 50.6842105,50.8543689 51.4736842,50.5631068 C52.2631579,50.2718447 53.1052632,50.4466019 53.9473684,51.0291262 C54.2105263,51.2038835 54.4210526,51.4368932 54.6315789,51.6699029 C54.8421053,51.9029126 55,52.1941748 55.1578947,52.4271845 C55.3157895,52.6601942 55.4210526,52.8932039 55.5263158,53.1262136 C55.6315789,53.3592233 55.7368421,53.4757282 55.7894737,53.5339806 C55.8947368,53.592233 56.1052632,53.592233 56.3684211,53.4174757 C56.6315789,53.2427184 56.8421053,52.9514563 57,52.6019417 C57.3684211,51.7281553 57.6315789,50.7961165 57.7368421,49.7475728 C57.8421053,48.7572816 57.8421053,47.6504854 57.6842105,46.6019417 C57.5263158,45.4951456 57.2105263,44.4466019 56.7894737,43.3398058 C56.3684211,42.2912621 55.7894737,41.2427184 55.0526316,40.2524272 L55.5789474,38.9126214 L55.5789474,38.9126214 Z" id="Shape" fill="#F9BE02"></path>
                        <path d="M4.94736842,40.368932 C4.21052632,41.3592233 3.63157895,42.3495146 3.21052632,43.4563107 C2.78947368,44.5048544 2.47368421,45.6116505 2.31578947,46.7184466 C2.15789474,47.8252427 2.10526316,48.8737864 2.26315789,49.8640777 C2.36842105,50.8543689 2.63157895,51.8446602 3,52.7184466 C3.15789474,53.0679612 3.36842105,53.3592233 3.63157895,53.5339806 C3.89473684,53.7087379 4.10526316,53.7669903 4.21052632,53.6504854 C4.26315789,53.592233 4.36842105,53.4757282 4.47368421,53.2427184 C4.57894737,53.0097087 4.73684211,52.776699 4.84210526,52.5436893 C5,52.3106796 5.15789474,52.0194175 5.36842105,51.7864078 C5.57894737,51.5533981 5.78947368,51.3203883 6.05263158,51.1456311 C6.89473684,50.5631068 7.73684211,50.3883495 8.52631579,50.6796117 C9.31578947,50.9708738 9.94736842,51.6699029 10.4736842,52.776699 C10.7368421,53.3592233 10.8421053,53.8834951 10.8947368,54.4660194 C10.8947368,55.0485437 10.8421053,55.631068 10.7368421,56.1553398 C10.5789474,56.7378641 10.3684211,57.2621359 10.0526316,57.7281553 C9.73684211,58.1941748 9.31578947,58.6019417 8.84210526,58.9514563 C8.26315789,59.3009709 7.68421053,59.5339806 7,59.592233 C6.31578947,59.6504854 5.63157895,59.4757282 4.94736842,59.184466 C4.26315789,58.8349515 3.63157895,58.368932 3,57.7281553 C2.36842105,57.0873786 1.84210526,56.2135922 1.36842105,55.223301 C0.894736842,54.1165049 0.526315789,52.8932039 0.368421053,51.6699029 C0.210526316,50.3883495 0.210526316,49.0485437 0.473684211,47.7087379 C0.684210526,46.3106796 1.10526316,44.9126214 1.78947368,43.4563107 C2.47368421,42 3.31578947,40.5436893 4.42105263,39.0291262 L4.94736842,40.368932 L4.94736842,40.368932 Z" id="Shape" fill="#29910D"></path>
                    </g>
                </g>
                <text id="SAMSKIPTABORÐOÐIN" font-family="Montserrat-Regular, Montserrat" font-size="20" font-weight="normal" letter-spacing="0.289999992" fill="#000000">
                    <tspan x="71.0700001" y="33">SAMSKIPTABORÐOÐI</tspan>
                    <tspan x="295.21" y="33">N</tspan>
                </text>
            </g>
        </g>
    </g>
</svg>