<?xml version="1.0" encoding="utf-8"?>
<!-- Generator: Adobe Illustrator 19.2.1, SVG Export Plug-In . SVG Version: 6.00 Build 0)  -->
<svg version="1.1" id="Layer_1" xmlns="http://www.w3.org/2000/svg" xmlns:xlink="http://www.w3.org/1999/xlink" x="0px" y="0px"
	 viewBox="0 0 600 400" style="enable-background:new 0 0 600 400;" xml:space="preserve">
<style type="text/css">
	.st0{fill:#B77835;}
	.st1{fill:#29910D;}
	.st2{fill:#F9BE02;}
</style>
<g>
	<g>
		<g>
			<path class="st0" d="M282.2,227.4l1.7-2.2l-15.7-13.1l1.6-3.9l3.5-4.3l-0.7-5.8l-3.4-0.1l-5.1,4.8l-4.3,1.1l-5.8,4.5l-13.1-2.4
				l-2.9,18.6l2.8,5l9.2,1.7l1-2.7l12.6,6.4l10.2,2.5l0.9-2.1l1.7,0.3l2.3-1.5l0-1.4l2.5,0.6l2.2-1.7l0.7-2.9L282.2,227.4z
				 M244.1,223.5c-0.1,0.6-0.6,1.1-1.2,1.1c-0.1,0-0.1,0-0.2,0c-0.3-0.1-0.6-0.2-0.7-0.5c-0.2-0.3-0.3-0.6-0.2-1
				c0.1-0.6,0.6-1.1,1.2-1.1c0.1,0,0.1,0,0.2,0c0.3,0.1,0.6,0.2,0.7,0.5C244,222.8,244.1,223.1,244.1,223.5z M282,230.7l-1.1,0.8
				l-3.6-0.9l-7.8-4.4l-0.2,0.4l7.7,4.3l0,2.3l-0.9,0.6l-1.8-0.3h0l-6.6-3.3l-0.2,0.4l6.1,3.1l-0.7,1.7l-8.7-2.2l-12.3-6.3l0-0.2
				l0.1-0.3l2.4-15.8l6.1-4.7l4.4-1.1l4.9-4.6l1.3,0l0.4,3.2l-3.1,3.8l-2.1,5.1l-2.8-2.2l-0.3,0.4l3.1,2.4l15.1,12.6l-1.5,1.9
				l-9.1-5.7l-0.2,0.4l9.7,6.1v0l1.9,1.6L282,230.7z"/>
		</g>
	</g>
	<g>
		<g>
			<g>
				<path class="st0" d="M329.8,206.4l-13.1,2.2l-5.8-4.6l-4.3-1.2l-5-4.9l-3.4,0.1l-0.8,5.8l3.4,4.3l1.5,3.9l-15.8,12.9l1.7,2.2
					l-2,1.7l0.7,2.9l2.2,1.7l2.5-0.6l0,1.4l2.3,1.5l1.7-0.3l0.9,2.1l10.3-2.4l12.6-6.2l1,2.7l9.2-1.5l2.8-4.9L329.8,206.4z
					 M318.6,227l-12.4,6.1l-8.7,2l-0.7-1.7l5.9-2.9l1.1,1.6l0.3-0.3l-1.3-1.9l-6.8,3.3h0l-1.8,0.3l-0.9-0.6l0-2.3l7.3-4
					c0.3,0.6,0.8,1.4,0.8,1.4l0.4-0.3c0,0-0.6-0.9-0.8-1.4l0,0c0,0,0-0.1-0.1-0.1c0,0,0-0.1-0.1-0.1c0,0,0,0,0,0
					c-0.2-0.5-0.5-1.6-0.5-1.6l-0.4,0.2c0,0,0.3,1,0.5,1.6l-7.4,4.1l-3.7,0.9l-1-0.8l-0.2-0.9l2-1.6l0,0l9.4-5.8l-0.8-2.7l-0.4,0.2
					l0.7,2.3l-8.5,5.2l-1.5-1.9l15-12.3c0.5,1,1.9,3.5,3.4,5.2c2,2.3,4.6,3.9,4.6,3.9l0.2-0.4c0,0-2.5-1.6-4.5-3.8
					c-1.5-1.8-3.4-5.2-3.4-5.2l-2.2-5.6l-3.1-3.9l0.4-3.2l1.3,0l4.8,4.7l4.4,1.2l6.1,4.8l2.2,15.7l0,0.1l0.1,0.3L318.6,227z
					 M328.4,224.4c-0.2,0.3-0.4,0.4-0.7,0.5c-0.1,0-0.1,0-0.2,0c-0.6,0-1.1-0.5-1.2-1.1c-0.1-0.4,0-0.7,0.2-1
					c0.2-0.3,0.4-0.4,0.7-0.5c0.1,0,0.1,0,0.2,0c0.6,0,1.1,0.5,1.2,1.1C328.7,223.7,328.6,224.1,328.4,224.4z"/>
			</g>
			<g>
				<path class="st0" d="M301.1,226.4c0,0,0-0.1-0.1-0.1c0,0,0-0.1-0.1-0.1L301.1,226.4z"/>
			</g>
		</g>
	</g>
</g>
<g>
	<path class="st1" d="M332.6,204c1.4-1.7,2.5-3.4,3.3-5.3c0.8-1.8,1.4-3.7,1.7-5.6c0.3-1.9,0.4-3.7,0.1-5.4
		c-0.2-1.7-0.7-3.4-1.4-4.9c-0.3-0.6-0.7-1.1-1.2-1.4s-0.9-0.4-1.1-0.2c-0.1,0.1-0.3,0.3-0.5,0.7c-0.2,0.4-0.5,0.8-0.7,1.2
		c-0.3,0.4-0.6,0.9-1,1.3c-0.4,0.4-0.8,0.8-1.3,1.1c-1.6,1-3.2,1.3-4.7,0.8c-1.5-0.5-2.7-1.7-3.7-3.6c-0.5-1-0.7-1.9-0.8-2.9
		c0-1,0.1-2,0.3-2.9c0.3-1,0.7-1.9,1.3-2.7c0.6-0.8,1.4-1.5,2.3-2.1c1.1-0.6,2.2-1,3.5-1.1c1.3-0.1,2.6,0.2,3.9,0.7
		c1.3,0.6,2.5,1.4,3.7,2.5c1.2,1.1,2.2,2.6,3.1,4.3c0.9,1.9,1.6,4,1.9,6.1c0.3,2.2,0.3,4.5-0.2,6.8c-0.4,2.4-1.2,4.8-2.5,7.3
		s-2.9,5-5,7.6L332.6,204z"/>
</g>
<g>
	<path class="st2" d="M235.9,206.7c-2.1-2.6-3.8-5.1-5-7.6c-1.2-2.5-2-4.9-2.5-7.3c-0.4-2.4-0.5-4.6-0.2-6.8
		c0.3-2.2,0.9-4.2,1.9-6.1c0.9-1.8,1.9-3.2,3.1-4.3c1.2-1.1,2.4-2,3.7-2.5c1.3-0.6,2.6-0.8,3.9-0.7c1.3,0.1,2.5,0.4,3.5,1.1
		c0.9,0.6,1.7,1.3,2.3,2.1c0.6,0.8,1.1,1.7,1.3,2.7c0.3,1,0.4,1.9,0.3,2.9c0,1-0.3,2-0.8,2.9c-0.9,1.9-2.2,3.1-3.7,3.6
		c-1.5,0.5-3.1,0.2-4.7-0.8c-0.5-0.3-0.9-0.7-1.3-1.1c-0.4-0.4-0.7-0.9-1-1.3c-0.3-0.4-0.5-0.8-0.7-1.2c-0.2-0.4-0.4-0.6-0.5-0.7
		c-0.2-0.1-0.6-0.1-1.1,0.2c-0.5,0.3-0.9,0.8-1.2,1.4c-0.7,1.5-1.2,3.1-1.4,4.9c-0.2,1.7-0.2,3.6,0.1,5.4c0.3,1.9,0.9,3.7,1.7,5.6
		c0.8,1.8,1.9,3.6,3.3,5.3L235.9,206.7z"/>
</g>
<g>
	<path class="st2" d="M333.6,236.8c2.1,2.6,3.8,5.1,5,7.6s2,4.9,2.5,7.3c0.4,2.4,0.5,4.6,0.2,6.8c-0.3,2.2-0.9,4.2-1.9,6.1
		c-0.9,1.8-1.9,3.2-3.1,4.3c-1.2,1.1-2.4,2-3.7,2.5c-1.3,0.6-2.6,0.8-3.9,0.7c-1.3-0.1-2.5-0.4-3.5-1.1c-0.9-0.6-1.7-1.3-2.3-2.1
		c-0.6-0.8-1.1-1.7-1.3-2.7c-0.3-1-0.4-1.9-0.3-2.9c0-1,0.3-2,0.8-2.9c0.9-1.9,2.2-3.1,3.7-3.6c1.5-0.5,3.1-0.2,4.7,0.8
		c0.5,0.3,0.9,0.7,1.3,1.1c0.4,0.4,0.7,0.9,1,1.3c0.3,0.4,0.5,0.8,0.7,1.2c0.2,0.4,0.4,0.6,0.5,0.7c0.2,0.1,0.6,0.1,1.1-0.2
		s0.9-0.8,1.2-1.4c0.7-1.5,1.2-3.1,1.4-4.9c0.2-1.7,0.2-3.6-0.1-5.4c-0.3-1.9-0.9-3.7-1.7-5.6c-0.8-1.8-1.9-3.6-3.3-5.3L333.6,236.8
		z"/>
</g>
<g>
	<path class="st1" d="M237.4,239.3c-1.4,1.7-2.5,3.4-3.3,5.3c-0.8,1.8-1.4,3.7-1.7,5.6c-0.3,1.9-0.4,3.7-0.1,5.4
		c0.2,1.7,0.7,3.4,1.4,4.9c0.3,0.6,0.7,1.1,1.2,1.4s0.9,0.4,1.1,0.2c0.1-0.1,0.3-0.3,0.5-0.7c0.2-0.4,0.5-0.8,0.7-1.2
		c0.3-0.4,0.6-0.9,1-1.3c0.4-0.4,0.8-0.8,1.3-1.1c1.6-1,3.2-1.3,4.7-0.8c1.5,0.5,2.7,1.7,3.7,3.6c0.5,1,0.7,1.9,0.8,2.9
		c0,1-0.1,2-0.3,2.9c-0.3,1-0.7,1.9-1.3,2.7c-0.6,0.8-1.4,1.5-2.3,2.1c-1.1,0.6-2.2,1-3.5,1.1c-1.3,0.1-2.6-0.2-3.9-0.7
		c-1.3-0.6-2.5-1.4-3.7-2.5c-1.2-1.1-2.2-2.6-3.1-4.3c-0.9-1.9-1.6-4-1.9-6.1c-0.3-2.2-0.3-4.5,0.2-6.8c0.4-2.4,1.2-4.8,2.5-7.3
		s2.9-5,5-7.6L237.4,239.3z"/>
</g>
</svg>
