<?xml version="1.0" encoding="UTF-8"?>
<svg width="25px" height="28px" viewBox="0 0 25 28" version="1.1" xmlns="http://www.w3.org/2000/svg" xmlns:xlink="http://www.w3.org/1999/xlink">
    <!-- Generator: Sketch 40.2 (33826) - http://www.bohemiancoding.com/sketch -->
    <title>Shape</title>
    <desc>Created with Sketch.</desc>
    <defs></defs>
    <g id="Page-1" stroke="none" stroke-width="1" fill="none" fill-rule="evenodd">
        <g id="heilsa_slide" transform="translate(-100.000000, -2190.000000)" fill="#C3C8CD">
            <g id="noun_516562_cc" transform="translate(100.000000, 2190.000000)">
                <g id="back">
                    <g id="Group">
                        <g id="Shape">
                            <path d="M5.17809686,13.7272708 C4.72385495,14.0027995 4.72166323,14.0027995 5.17713245,14.2781485 C5.63260164,14.5534975 24.1162484,25.9244615 24.1162484,25.9244615 C24.8874945,26.3995491 24.8947689,27.1653372 24.1205231,27.6422726 C23.351638,28.115906 22.1172765,28.1234506 21.3318687,27.6396393 L0.721582591,14.9437031 C0.335149773,14.6947021 -1.77635684e-15,14.3817689 -1.77635684e-15,14.0027999 C-1.77635684e-15,13.6290995 0.309903409,13.3062207 0.703298727,13.0712803 L21.341089,0.358401436 C22.1124884,-0.116780568 23.355898,-0.121262498 24.1302976,0.355767642 C24.8993355,0.829495041 24.9115858,1.59001278 24.126022,2.07392011 C17.8100469,5.95837035 5.63233882,13.4517421 5.17809686,13.7272708 L5.17809686,13.7272708 Z"></path>
                        </g>
                    </g>
                </g>
            </g>
        </g>
    </g>
</svg>